<svg width="81" height="27" viewBox="0 0 81 27" fill="none" xmlns="http://www.w3.org/2000/svg">
<path d="M5.9082 10.9531H8.61523C9.9043 10.9531 10.8594 10.6309 11.4805 9.98633C12.1016 9.3418 12.4121 8.48633 12.4121 7.41992C12.4121 6.38867 12.1016 5.58594 11.4805 5.01172C10.8711 4.4375 10.0273 4.15039 8.94922 4.15039C7.97656 4.15039 7.16211 4.41992 6.50586 4.95898C5.84961 5.48633 5.52148 6.17773 5.52148 7.0332H0.441406C0.441406 5.69727 0.798828 4.50195 1.51367 3.44727C2.24023 2.38086 3.24805 1.54883 4.53711 0.951172C5.83789 0.353516 7.26758 0.0546875 8.82617 0.0546875C11.5332 0.0546875 13.6543 0.705078 15.1895 2.00586C16.7246 3.29492 17.4922 5.07617 17.4922 7.34961C17.4922 8.52148 17.1348 9.59961 16.4199 10.584C15.7051 11.5684 14.7676 12.3242 13.6074 12.8516C15.0488 13.3672 16.1211 14.1406 16.8242 15.1719C17.5391 16.2031 17.8965 17.4219 17.8965 18.8281C17.8965 21.1016 17.0645 22.9238 15.4004 24.2949C13.748 25.666 11.5566 26.3516 8.82617 26.3516C6.27148 26.3516 4.17969 25.6777 2.55078 24.3301C0.933594 22.9824 0.125 21.2012 0.125 18.9863H5.20508C5.20508 19.9473 5.5625 20.7324 6.27734 21.3418C7.00391 21.9512 7.89453 22.2559 8.94922 22.2559C10.1562 22.2559 11.0996 21.9395 11.7793 21.3066C12.4707 20.6621 12.8164 19.8125 12.8164 18.7578C12.8164 16.2031 11.4102 14.9258 8.59766 14.9258H5.9082V10.9531ZM38.6387 15.418C38.6387 18.957 37.9062 21.6641 36.4414 23.5391C34.9766 25.4141 32.832 26.3516 30.0078 26.3516C27.2188 26.3516 25.0859 25.4316 23.6094 23.5918C22.1328 21.752 21.377 19.1152 21.3418 15.6816V10.9707C21.3418 7.39648 22.0801 4.68359 23.5566 2.83203C25.0449 0.980469 27.1836 0.0546875 29.9727 0.0546875C32.7617 0.0546875 34.8945 0.974609 36.3711 2.81445C37.8477 4.64258 38.6035 7.27344 38.6387 10.707V15.418ZM33.5586 10.25C33.5586 8.12891 33.2656 6.58789 32.6797 5.62695C32.1055 4.6543 31.2031 4.16797 29.9727 4.16797C28.7773 4.16797 27.8926 4.63086 27.3184 5.55664C26.7559 6.4707 26.457 7.90625 26.4219 9.86328V16.0859C26.4219 18.1719 26.7031 19.7246 27.2656 20.7441C27.8398 21.752 28.7539 22.2559 30.0078 22.2559C31.25 22.2559 32.1465 21.7695 32.6973 20.7969C33.248 19.8242 33.5352 18.3359 33.5586 16.332V10.25ZM59.627 26H42.084V22.5195L50.3633 13.6953C51.5 12.4531 52.3379 11.3691 52.877 10.4434C53.4277 9.51758 53.7031 8.63867 53.7031 7.80664C53.7031 6.66992 53.416 5.7793 52.8418 5.13477C52.2676 4.47852 51.4473 4.15039 50.3809 4.15039C49.2324 4.15039 48.3242 4.54883 47.6562 5.3457C47 6.13086 46.6719 7.16797 46.6719 8.45703H41.5742C41.5742 6.89844 41.9434 5.47461 42.6816 4.18555C43.4316 2.89648 44.4863 1.88867 45.8457 1.16211C47.2051 0.423828 48.7461 0.0546875 50.4688 0.0546875C53.1055 0.0546875 55.1504 0.6875 56.6035 1.95312C58.0684 3.21875 58.8008 5.00586 58.8008 7.31445C58.8008 8.58008 58.4727 9.86914 57.8164 11.1816C57.1602 12.4941 56.0352 14.0234 54.4414 15.7695L48.623 21.9043H59.627V26ZM77.7852 16.3672H80.6855V20.4629H77.7852V26H72.7051V20.4629H62.2109L61.9824 17.2637L72.6523 0.40625H77.7852V16.3672ZM67.0449 16.3672H72.7051V7.33203L72.3711 7.91211L67.0449 16.3672Z" fill="#124F48" fill-opacity="0.37"/>
</svg>
