<svg width="61" height="27" viewBox="0 0 61 27" fill="none" xmlns="http://www.w3.org/2000/svg">
<path d="M16.7695 16.3672H19.6699V20.4629H16.7695V26H11.6895V20.4629H1.19531L0.966797 17.2637L11.6367 0.40625H16.7695V16.3672ZM6.0293 16.3672H11.6895V7.33203L11.3555 7.91211L6.0293 16.3672ZM34.752 26H29.6719V6.41797L23.6074 8.29883V4.16797L34.207 0.371094H34.752V26ZM56.8652 0.142578V4.32617H56.373C54.0762 4.36133 52.2246 4.95898 50.8184 6.11914C49.4238 7.2793 48.5859 8.89062 48.3047 10.9531C49.6641 9.57031 51.3809 8.87891 53.4551 8.87891C55.6816 8.87891 57.4512 9.67578 58.7637 11.2695C60.0762 12.8633 60.7324 14.9609 60.7324 17.5625C60.7324 19.2266 60.3691 20.7324 59.6426 22.0801C58.9277 23.4277 57.9082 24.4766 56.584 25.2266C55.2715 25.9766 53.7832 26.3516 52.1191 26.3516C49.4238 26.3516 47.2441 25.4141 45.5801 23.5391C43.9277 21.6641 43.1016 19.1621 43.1016 16.0332V14.2051C43.1016 11.4277 43.623 8.97852 44.666 6.85742C45.7207 4.72461 47.2266 3.07812 49.1836 1.91797C51.1523 0.746094 53.4316 0.154297 56.0215 0.142578H56.8652ZM51.9082 12.957C51.0879 12.957 50.3438 13.1738 49.6758 13.6074C49.0078 14.0293 48.5156 14.5918 48.1992 15.2949V16.8418C48.1992 18.541 48.5332 19.8711 49.2012 20.832C49.8691 21.7812 50.8066 22.2559 52.0137 22.2559C53.1035 22.2559 53.9824 21.8281 54.6504 20.9727C55.3301 20.1055 55.6699 18.9863 55.6699 17.6152C55.6699 16.2207 55.3301 15.0957 54.6504 14.2402C53.9707 13.3848 53.0566 12.957 51.9082 12.957Z" fill="#124F48" fill-opacity="0.37"/>
</svg>
