<svg width="80" height="27" viewBox="0 0 80 27" fill="none" xmlns="http://www.w3.org/2000/svg">
<path d="M12.623 15.7695C11.2988 17.0703 9.75195 17.7207 7.98242 17.7207C5.7207 17.7207 3.91016 16.9473 2.55078 15.4004C1.19141 13.8418 0.511719 11.7441 0.511719 9.10742C0.511719 7.43164 0.875 5.89648 1.60156 4.50195C2.33984 3.0957 3.36523 2.00586 4.67773 1.23242C5.99023 0.447266 7.4668 0.0546875 9.10742 0.0546875C10.7949 0.0546875 12.2949 0.476562 13.6074 1.32031C14.9199 2.16406 15.9395 3.37695 16.666 4.95898C17.3926 6.54102 17.7617 8.35156 17.7734 10.3906V12.2715C17.7734 16.5371 16.7129 19.8887 14.5918 22.3262C12.4707 24.7637 9.46484 26.0645 5.57422 26.2285L4.32617 26.2461V22.0098L5.45117 21.9922C9.86914 21.793 12.2598 19.7188 12.623 15.7695ZM9.23047 13.8359C10.0508 13.8359 10.7539 13.625 11.3398 13.2031C11.9375 12.7812 12.3887 12.2715 12.6934 11.6738V9.58203C12.6934 7.85938 12.3652 6.52344 11.709 5.57422C11.0527 4.625 10.1738 4.15039 9.07227 4.15039C8.05273 4.15039 7.21484 4.61914 6.55859 5.55664C5.90234 6.48242 5.57422 7.64844 5.57422 9.05469C5.57422 10.4492 5.89062 11.5977 6.52344 12.5C7.16797 13.3906 8.07031 13.8359 9.23047 13.8359ZM38.9551 26H21.4121V22.5195L29.6914 13.6953C30.8281 12.4531 31.666 11.3691 32.2051 10.4434C32.7559 9.51758 33.0312 8.63867 33.0312 7.80664C33.0312 6.66992 32.7441 5.7793 32.1699 5.13477C31.5957 4.47852 30.7754 4.15039 29.709 4.15039C28.5605 4.15039 27.6523 4.54883 26.9844 5.3457C26.3281 6.13086 26 7.16797 26 8.45703H20.9023C20.9023 6.89844 21.2715 5.47461 22.0098 4.18555C22.7598 2.89648 23.8145 1.88867 25.1738 1.16211C26.5332 0.423828 28.0742 0.0546875 29.7969 0.0546875C32.4336 0.0546875 34.4785 0.6875 35.9316 1.95312C37.3965 3.21875 38.1289 5.00586 38.1289 7.31445C38.1289 8.58008 37.8008 9.86914 37.1445 11.1816C36.4883 12.4941 35.3633 14.0234 33.7695 15.7695L27.9512 21.9043H38.9551V26ZM57.1133 16.3672H60.0137V20.4629H57.1133V26H52.0332V20.4629H41.5391L41.3105 17.2637L51.9805 0.40625H57.1133V16.3672ZM46.373 16.3672H52.0332V7.33203L51.6992 7.91211L46.373 16.3672ZM73.2148 11.6738H79.5605V16.2617H73.2148V23.4336H68.3809V16.2617H62.0176V11.6738H68.3809V4.80078H73.2148V11.6738Z" fill="#124F48" fill-opacity="0.37"/>
</svg>
