<svg width="58" height="28" viewBox="0 0 58 28" fill="none" xmlns="http://www.w3.org/2000/svg">
<path d="M12.623 16.7695C11.2988 18.0703 9.75195 18.7207 7.98242 18.7207C5.7207 18.7207 3.91016 17.9473 2.55078 16.4004C1.19141 14.8418 0.511719 12.7441 0.511719 10.1074C0.511719 8.43164 0.875 6.89648 1.60156 5.50195C2.33984 4.0957 3.36523 3.00586 4.67773 2.23242C5.99023 1.44727 7.4668 1.05469 9.10742 1.05469C10.7949 1.05469 12.2949 1.47656 13.6074 2.32031C14.9199 3.16406 15.9395 4.37695 16.666 5.95898C17.3926 7.54102 17.7617 9.35156 17.7734 11.3906V13.2715C17.7734 17.5371 16.7129 20.8887 14.5918 23.3262C12.4707 25.7637 9.46484 27.0645 5.57422 27.2285L4.32617 27.2461V23.0098L5.45117 22.9922C9.86914 22.793 12.2598 20.7188 12.623 16.7695ZM9.23047 14.8359C10.0508 14.8359 10.7539 14.625 11.3398 14.2031C11.9375 13.7812 12.3887 13.2715 12.6934 12.6738V10.582C12.6934 8.85938 12.3652 7.52344 11.709 6.57422C11.0527 5.625 10.1738 5.15039 9.07227 5.15039C8.05273 5.15039 7.21484 5.61914 6.55859 6.55664C5.90234 7.48242 5.57422 8.64844 5.57422 10.0547C5.57422 11.4492 5.89062 12.5977 6.52344 13.5C7.16797 14.3906 8.07031 14.8359 9.23047 14.8359ZM28.5312 19.3711L26.7031 21.1992V27H21.623V0H26.7031V14.959L27.6875 13.6934L32.5566 7.98047H38.6562L31.7832 15.9082L39.2539 27H33.418L28.5312 19.3711ZM51.1016 12.6738H57.4473V17.2617H51.1016V24.4336H46.2676V17.2617H39.9043V12.6738H46.2676V5.80078H51.1016V12.6738Z" fill="#124F48" fill-opacity="0.37"/>
</svg>
